<svg width="180" height="36" viewBox="0 0 180 36" fill="none" xmlns="http://www.w3.org/2000/svg">
<path d="M14.464 35.672C9.956 35.672 6.442 34.454 3.922 32.018C1.402 29.582 0.142 26.166 0.142 21.77V5.6H10.054V21.476C10.054 23.632 10.432 25.2 11.188 26.18C11.972 27.16 13.092 27.65 14.548 27.65C16.004 27.65 17.11 27.16 17.866 26.18C18.65 25.2 19.042 23.632 19.042 21.476V5.6H28.786V21.77C28.786 26.166 27.526 29.582 25.006 32.018C22.486 34.454 18.972 35.672 14.464 35.672ZM48.9955 11.606C51.8235 11.606 54.0915 12.46 55.7995 14.168C57.5355 15.876 58.4035 18.452 58.4035 21.896V35H48.9115V23.534C48.9115 20.902 47.9735 19.586 46.0975 19.586C45.0335 19.586 44.1655 19.964 43.4935 20.72C42.8495 21.448 42.5275 22.61 42.5275 24.206V35H33.0355V12.026H42.0655V14.294C42.9615 13.398 43.9975 12.726 45.1735 12.278C46.3495 11.83 47.6235 11.606 48.9955 11.606ZM62.5258 12.026H72.0178V35H62.5258V12.026ZM67.2718 10.178C65.5638 10.178 64.1778 9.73 63.1138 8.834C62.0778 7.91 61.5598 6.748 61.5598 5.348C61.5598 3.948 62.0778 2.8 63.1138 1.904C64.1778 0.979998 65.5638 0.517998 67.2718 0.517998C69.0078 0.517998 70.3938 0.951999 71.4298 1.82C72.4658 2.688 72.9838 3.808 72.9838 5.18C72.9838 6.636 72.4658 7.84 71.4298 8.792C70.3938 9.716 69.0078 10.178 67.2718 10.178Z" fill="#65AD2F"/>
<path d="M83.953 35.672C81.657 35.672 79.571 35.308 77.695 34.58C75.847 33.824 74.321 32.732 73.117 31.304L78.451 25.004C79.235 25.984 80.005 26.712 80.761 27.188C81.517 27.664 82.301 27.902 83.113 27.902C84.149 27.902 84.933 27.594 85.465 26.978C86.025 26.362 86.305 25.452 86.305 24.248V13.076H76.309V5.6H96.091V23.66C96.091 27.664 95.055 30.674 92.983 32.69C90.939 34.678 87.929 35.672 83.953 35.672ZM112.48 35.42C109.932 35.42 107.636 34.916 105.592 33.908C103.576 32.872 101.994 31.458 100.846 29.666C99.6982 27.846 99.1242 25.788 99.1242 23.492C99.1242 21.196 99.6982 19.152 100.846 17.36C101.994 15.54 103.576 14.126 105.592 13.118C107.636 12.11 109.932 11.606 112.48 11.606C115.056 11.606 117.352 12.11 119.368 13.118C121.412 14.126 122.994 15.54 124.114 17.36C125.262 19.152 125.836 21.196 125.836 23.492C125.836 25.788 125.262 27.846 124.114 29.666C122.994 31.458 121.412 32.872 119.368 33.908C117.352 34.916 115.056 35.42 112.48 35.42ZM112.48 28.028C113.572 28.028 114.468 27.636 115.168 26.852C115.868 26.04 116.218 24.92 116.218 23.492C116.218 22.064 115.868 20.958 115.168 20.174C114.468 19.39 113.572 18.998 112.48 18.998C111.388 18.998 110.492 19.39 109.792 20.174C109.092 20.958 108.742 22.064 108.742 23.492C108.742 24.92 109.092 26.04 109.792 26.852C110.492 27.636 111.388 28.028 112.48 28.028ZM144.137 11.606C146.153 11.606 148.001 12.096 149.681 13.076C151.389 14.028 152.733 15.414 153.713 17.234C154.721 19.026 155.225 21.112 155.225 23.492C155.225 25.872 154.721 27.972 153.713 29.792C152.733 31.612 151.389 33.012 149.681 33.992C148.001 34.944 146.153 35.42 144.137 35.42C141.309 35.42 139.209 34.65 137.837 33.11V35H128.807V3.836H138.299V13.58C139.643 12.264 141.589 11.606 144.137 11.606ZM141.869 28.028C142.961 28.028 143.857 27.636 144.557 26.852C145.257 26.04 145.607 24.92 145.607 23.492C145.607 22.064 145.257 20.958 144.557 20.174C143.857 19.39 142.961 18.998 141.869 18.998C140.777 18.998 139.881 19.39 139.181 20.174C138.481 20.958 138.131 22.064 138.131 23.492C138.131 24.92 138.481 26.04 139.181 26.852C139.881 27.636 140.777 28.028 141.869 28.028ZM167.203 35.42C165.243 35.42 163.311 35.21 161.407 34.79C159.503 34.37 157.963 33.824 156.787 33.152L159.391 26.894C160.455 27.538 161.715 28.042 163.171 28.406C164.627 28.77 166.041 28.952 167.413 28.952C168.505 28.952 169.261 28.868 169.681 28.7C170.129 28.504 170.353 28.224 170.353 27.86C170.353 27.496 170.073 27.244 169.513 27.104C168.981 26.964 168.099 26.824 166.867 26.684C164.991 26.46 163.395 26.18 162.079 25.844C160.763 25.48 159.601 24.794 158.593 23.786C157.613 22.778 157.123 21.336 157.123 19.46C157.123 17.976 157.571 16.646 158.467 15.47C159.363 14.294 160.693 13.356 162.457 12.656C164.249 11.956 166.391 11.606 168.883 11.606C170.619 11.606 172.313 11.774 173.965 12.11C175.645 12.418 177.073 12.88 178.249 13.496L175.645 19.754C173.629 18.634 171.417 18.074 169.009 18.074C166.937 18.074 165.901 18.438 165.901 19.166C165.901 19.53 166.181 19.796 166.741 19.964C167.301 20.104 168.183 20.244 169.387 20.384C171.263 20.608 172.845 20.902 174.133 21.266C175.449 21.63 176.597 22.316 177.577 23.324C178.585 24.332 179.089 25.774 179.089 27.65C179.089 29.078 178.641 30.38 177.745 31.556C176.849 32.732 175.505 33.67 173.713 34.37C171.921 35.07 169.751 35.42 167.203 35.42Z" fill="white"/>
</svg>
