<svg width="20" height="21" viewBox="0 0 20 21" fill="none" xmlns="http://www.w3.org/2000/svg">
<path d="M13.3563 2.28838C10.3051 -0.762795 5.33907 -0.762795 2.28789 2.28838C-0.762629 5.34022 -0.762629 10.3056 2.28789 13.3574C5.00504 16.0739 9.23688 16.3649 12.2861 14.2437C12.3502 14.5473 12.4971 14.837 12.7332 15.0732L17.1767 19.5167C17.8242 20.1629 18.8706 20.1629 19.5148 19.5167C20.1617 18.8698 20.1617 17.8234 19.5148 17.1785L15.0714 12.7337C14.8365 12.4995 14.5462 12.352 14.2426 12.2879C16.3651 9.23803 16.0741 5.00686 13.3563 2.28838ZM11.9534 11.9545C9.6754 14.2325 5.96809 14.2325 3.69078 11.9545C1.41414 9.67656 1.41414 5.9699 3.69078 3.69194C5.96809 1.41463 9.6754 1.41463 11.9534 3.69194C14.2313 5.9699 14.2313 9.67656 11.9534 11.9545Z" fill="#0E346A"/>
</svg>
